<?xml version="1.0" encoding="utf-8" standalone="no"?>
<!DOCTYPE svg PUBLIC "-//W3C//DTD SVG 1.1//EN"
  "http://www.w3.org/Graphics/SVG/1.1/DTD/svg11.dtd">
<svg xmlns:xlink="http://www.w3.org/1999/xlink" width="519.84pt" height="519.413681pt" viewBox="0 0 519.84 519.413681" xmlns="http://www.w3.org/2000/svg" version="1.1">
 <metadata>
  <rdf:RDF xmlns:dc="http://purl.org/dc/elements/1.1/" xmlns:cc="http://creativecommons.org/ns#" xmlns:rdf="http://www.w3.org/1999/02/22-rdf-syntax-ns#">
   <cc:Work>
    <dc:type rdf:resource="http://purl.org/dc/dcmitype/StillImage"/>
    <dc:date>2026-09-29T19:46:38.547797</dc:date>
    <dc:format>image/svg+xml</dc:format>
    <dc:creator>
     <cc:Agent>
      <dc:title>Matplotlib v3.10.8, https://matplotlib.org/</dc:title>
     </cc:Agent>
    </dc:creator>
   </cc:Work>
  </rdf:RDF>
 </metadata>
 <defs>
  <style type="text/css">*{stroke-linejoin: round; stroke-linecap: butt}</style>
 </defs>
 <g id="figure_1">
  <g id="patch_1">
   <path d="M -0 519.413681 
L 519.84 519.413681 
L 519.84 0 
L -0 0 
z
" style="fill: #ffffff"/>
  </g>
  <g id="axes_1">
   <g id="patch_2">
    <path d="M 470.736 296.928 
C 470.736 269.243897 465.282835 241.828986 454.688588 216.25221 
C 444.09434 190.675433 428.56504 167.434194 408.989423 147.858577 
C 389.413806 128.28296 366.172567 112.75366 340.59579 102.159412 
C 315.019014 91.565165 287.604103 86.112 259.92 86.112 
C 232.235897 86.112 204.820986 91.565165 179.24421 102.159412 
C 153.667433 112.75366 130.426194 128.28296 110.850577 147.858577 
C 91.27496 167.434194 75.74566 190.675433 65.151412 216.25221 
C 54.557165 241.828986 49.104 269.243897 49.104 296.928 
C 49.104 324.612103 54.557165 352.027014 65.151412 377.60379 
C 75.74566 403.180567 91.27496 426.421806 110.850577 445.997423 
C 130.426194 465.57304 153.667433 481.10234 179.24421 491.696588 
C 204.820986 502.290835 232.235897 507.744 259.92 507.744 
C 287.604103 507.744 315.019014 502.290835 340.59579 491.696588 
C 366.172567 481.10234 389.413806 465.57304 408.989423 445.997423 
C 428.56504 426.421806 444.09434 403.180567 454.688588 377.60379 
C 465.282835 352.027014 470.736 324.612103 470.736 296.928 
M 259.92 296.928 
C 259.92 296.928 259.92 296.928 259.92 296.928 
C 259.92 296.928 259.92 296.928 259.92 296.928 
C 259.92 296.928 259.92 296.928 259.92 296.928 
C 259.92 296.928 259.92 296.928 259.92 296.928 
C 259.92 296.928 259.92 296.928 259.92 296.928 
C 259.92 296.928 259.92 296.928 259.92 296.928 
C 259.92 296.928 259.92 296.928 259.92 296.928 
C 259.92 296.928 259.92 296.928 259.92 296.928 
C 259.92 296.928 259.92 296.928 259.92 296.928 
C 259.92 296.928 259.92 296.928 259.92 296.928 
C 259.92 296.928 259.92 296.928 259.92 296.928 
C 259.92 296.928 259.92 296.928 259.92 296.928 
C 259.92 296.928 259.92 296.928 259.92 296.928 
C 259.92 296.928 259.92 296.928 259.92 296.928 
C 259.92 296.928 259.92 296.928 259.92 296.928 
C 259.92 296.928 259.92 296.928 259.92 296.928 
z
" style="fill: #ffffff"/>
   </g>
   <g id="line2d_1">
    <path d="M 259.92 255.591529 
L 272.693672 257.61468 
L 284.216968 263.486093 
L 293.361907 272.631032 
L 299.23332 284.154328 
L 301.256471 296.928 
L 299.23332 309.701672 
L 293.361907 321.224968 
L 284.216968 330.369907 
L 272.693672 336.24132 
L 259.92 338.264471 
L 247.146328 336.24132 
L 235.623032 330.369907 
L 226.478093 321.224968 
L 220.60668 309.701672 
L 218.583529 296.928 
L 220.60668 284.154328 
L 226.478093 272.631032 
L 235.623032 263.486093 
L 247.146328 257.61468 
L 259.92 255.591529 
" clip-path="url(#pb552e41a5c)" style="fill: none; stroke-dasharray: 1.44,1.44; stroke-dashoffset: 0; stroke: #e8edf1; stroke-width: 0.72"/>
   </g>
   <g id="line2d_2">
    <path d="M 259.92 214.255059 
L 285.467344 218.301361 
L 308.513936 230.044186 
L 326.803814 248.334064 
L 338.546639 271.380656 
L 342.592941 296.928 
L 338.546639 322.475344 
L 326.803814 345.521936 
L 308.513936 363.811814 
L 285.467344 375.554639 
L 259.92 379.600941 
L 234.372656 375.554639 
L 211.326064 363.811814 
L 193.036186 345.521936 
L 181.293361 322.475344 
L 177.247059 296.928 
L 181.293361 271.380656 
L 193.036186 248.334064 
L 211.326064 230.044186 
L 234.372656 218.301361 
L 259.92 214.255059 
" clip-path="url(#pb552e41a5c)" style="fill: none; stroke-dasharray: 1.44,1.44; stroke-dashoffset: 0; stroke: #e8edf1; stroke-width: 0.72"/>
   </g>
   <g id="line2d_3">
    <path d="M 259.92 172.918588 
L 298.241016 178.988041 
L 332.810903 196.602278 
L 360.245722 224.037097 
L 377.859959 258.606984 
L 383.929412 296.928 
L 377.859959 335.249016 
L 360.245722 369.818903 
L 332.810903 397.253722 
L 298.241016 414.867959 
L 259.92 420.937412 
L 221.598984 414.867959 
L 187.029097 397.253722 
L 159.594278 369.818903 
L 141.980041 335.249016 
L 135.910588 296.928 
L 141.980041 258.606984 
L 159.594278 224.037097 
L 187.029097 196.602278 
L 221.598984 178.988041 
L 259.92 172.918588 
" clip-path="url(#pb552e41a5c)" style="fill: none; stroke: #aab5be; stroke-width: 0.95; stroke-linecap: square"/>
   </g>
   <g id="line2d_4">
    <path d="M 259.92 131.582118 
L 311.014688 139.674721 
L 357.107871 163.160371 
L 393.687629 199.740129 
L 417.173279 245.833312 
L 425.265882 296.928 
L 417.173279 348.022688 
L 393.687629 394.115871 
L 357.107871 430.695629 
L 311.014688 454.181279 
L 259.92 462.273882 
L 208.825312 454.181279 
L 162.732129 430.695629 
L 126.152371 394.115871 
L 102.666721 348.022688 
L 94.574118 296.928 
L 102.666721 245.833312 
L 126.152371 199.740129 
L 162.732129 163.160371 
L 208.825312 139.674721 
L 259.92 131.582118 
" clip-path="url(#pb552e41a5c)" style="fill: none; stroke-dasharray: 1.44,1.44; stroke-dashoffset: 0; stroke: #e8edf1; stroke-width: 0.72"/>
   </g>
   <g id="line2d_5">
    <path d="M 259.92 296.928 
L 259.92 127.448471 
" clip-path="url(#pb552e41a5c)" style="fill: none; stroke: #e8edf1; stroke-width: 0.45; stroke-linecap: square"/>
   </g>
   <g id="line2d_6">
    <path d="M 259.92 296.928 
L 312.292055 135.743389 
" clip-path="url(#pb552e41a5c)" style="fill: none; stroke: #e8edf1; stroke-width: 0.45; stroke-linecap: square"/>
   </g>
   <g id="line2d_7">
    <path d="M 259.92 296.928 
L 359.537568 159.816181 
" clip-path="url(#pb552e41a5c)" style="fill: none; stroke: #e8edf1; stroke-width: 0.45; stroke-linecap: square"/>
   </g>
   <g id="line2d_8">
    <path d="M 259.92 296.928 
L 397.031819 197.310432 
" clip-path="url(#pb552e41a5c)" style="fill: none; stroke: #e8edf1; stroke-width: 0.45; stroke-linecap: square"/>
   </g>
   <g id="line2d_9">
    <path d="M 259.92 296.928 
L 421.104611 244.555945 
" clip-path="url(#pb552e41a5c)" style="fill: none; stroke: #e8edf1; stroke-width: 0.45; stroke-linecap: square"/>
   </g>
   <g id="line2d_10">
    <path d="M 259.92 296.928 
L 429.399529 296.928 
" clip-path="url(#pb552e41a5c)" style="fill: none; stroke: #e8edf1; stroke-width: 0.45; stroke-linecap: square"/>
   </g>
   <g id="line2d_11">
    <path d="M 259.92 296.928 
L 421.104611 349.300055 
" clip-path="url(#pb552e41a5c)" style="fill: none; stroke: #e8edf1; stroke-width: 0.45; stroke-linecap: square"/>
   </g>
   <g id="line2d_12">
    <path d="M 259.92 296.928 
L 397.031819 396.545568 
" clip-path="url(#pb552e41a5c)" style="fill: none; stroke: #e8edf1; stroke-width: 0.45; stroke-linecap: square"/>
   </g>
   <g id="line2d_13">
    <path d="M 259.92 296.928 
L 359.537568 434.039819 
" clip-path="url(#pb552e41a5c)" style="fill: none; stroke: #e8edf1; stroke-width: 0.45; stroke-linecap: square"/>
   </g>
   <g id="line2d_14">
    <path d="M 259.92 296.928 
L 312.292055 458.112611 
" clip-path="url(#pb552e41a5c)" style="fill: none; stroke: #e8edf1; stroke-width: 0.45; stroke-linecap: square"/>
   </g>
   <g id="line2d_15">
    <path d="M 259.92 296.928 
L 259.92 466.407529 
" clip-path="url(#pb552e41a5c)" style="fill: none; stroke: #e8edf1; stroke-width: 0.45; stroke-linecap: square"/>
   </g>
   <g id="line2d_16">
    <path d="M 259.92 296.928 
L 207.547945 458.112611 
" clip-path="url(#pb552e41a5c)" style="fill: none; stroke: #e8edf1; stroke-width: 0.45; stroke-linecap: square"/>
   </g>
   <g id="line2d_17">
    <path d="M 259.92 296.928 
L 160.302432 434.039819 
" clip-path="url(#pb552e41a5c)" style="fill: none; stroke: #e8edf1; stroke-width: 0.45; stroke-linecap: square"/>
   </g>
   <g id="line2d_18">
    <path d="M 259.92 296.928 
L 122.808181 396.545568 
" clip-path="url(#pb552e41a5c)" style="fill: none; stroke: #e8edf1; stroke-width: 0.45; stroke-linecap: square"/>
   </g>
   <g id="line2d_19">
    <path d="M 259.92 296.928 
L 98.735389 349.300055 
" clip-path="url(#pb552e41a5c)" style="fill: none; stroke: #e8edf1; stroke-width: 0.45; stroke-linecap: square"/>
   </g>
   <g id="line2d_20">
    <path d="M 259.92 296.928 
L 90.440471 296.928 
" clip-path="url(#pb552e41a5c)" style="fill: none; stroke: #e8edf1; stroke-width: 0.45; stroke-linecap: square"/>
   </g>
   <g id="line2d_21">
    <path d="M 259.92 296.928 
L 98.735389 244.555945 
" clip-path="url(#pb552e41a5c)" style="fill: none; stroke: #e8edf1; stroke-width: 0.45; stroke-linecap: square"/>
   </g>
   <g id="line2d_22">
    <path d="M 259.92 296.928 
L 122.808181 197.310432 
" clip-path="url(#pb552e41a5c)" style="fill: none; stroke: #e8edf1; stroke-width: 0.45; stroke-linecap: square"/>
   </g>
   <g id="line2d_23">
    <path d="M 259.92 296.928 
L 160.302432 159.816181 
" clip-path="url(#pb552e41a5c)" style="fill: none; stroke: #e8edf1; stroke-width: 0.45; stroke-linecap: square"/>
   </g>
   <g id="line2d_24">
    <path d="M 259.92 296.928 
L 207.547945 135.743389 
" clip-path="url(#pb552e41a5c)" style="fill: none; stroke: #e8edf1; stroke-width: 0.45; stroke-linecap: square"/>
   </g>
   <g id="matplotlib.axis_1"/>
   <g id="matplotlib.axis_2"/>
   <g id="patch_3">
    <path d="M 259.92 296.928 
C 259.92 296.928 259.92 296.928 259.92 296.928 
C 259.92 296.928 259.92 296.928 259.92 296.928 
L 278.652229 140.762191 
C 272.435999 140.016549 266.18079 139.642729 259.92 139.642729 
C 253.65921 139.642729 247.404001 140.016549 241.187771 140.762191 
z
" clip-path="url(#pb552e41a5c)" style="fill: #4289be; stroke: #ffffff; stroke-width: 0.85; stroke-linejoin: miter"/>
   </g>
   <g id="patch_4">
    <path d="M 259.92 296.928 
C 259.92 296.928 259.92 296.928 259.92 296.928 
C 259.92 296.928 259.92 296.928 259.92 296.928 
L 321.825731 163.196996 
C 316.502526 160.732818 311.036935 158.588675 305.45814 156.776015 
C 299.879346 154.963355 294.197295 153.485409 288.442324 152.350069 
z
" clip-path="url(#pb552e41a5c)" style="fill: #4289be; stroke: #ffffff; stroke-width: 0.85; stroke-linejoin: miter"/>
   </g>
   <g id="patch_5">
    <path d="M 259.92 296.928 
C 259.92 296.928 259.92 296.928 259.92 296.928 
C 259.92 296.928 259.92 296.928 259.92 296.928 
L 357.16978 192.054749 
C 352.995267 188.183691 348.593342 184.565335 343.987509 181.219001 
C 339.381675 177.872667 334.580145 174.804321 329.608554 172.030346 
z
" clip-path="url(#pb552e41a5c)" style="fill: #4289be; stroke: #ffffff; stroke-width: 0.85; stroke-linejoin: miter"/>
   </g>
   <g id="patch_6">
    <path d="M 259.92 296.928 
C 259.92 296.928 259.92 296.928 259.92 296.928 
C 259.92 296.928 259.92 296.928 259.92 296.928 
L 380.485943 229.65639 
C 377.808175 224.857225 374.846246 220.222221 371.61597 215.776128 
C 368.385694 211.330034 364.89283 207.080777 361.156028 203.051045 
z
" clip-path="url(#pb552e41a5c)" style="fill: #4289be; stroke: #ffffff; stroke-width: 0.85; stroke-linejoin: miter"/>
   </g>
   <g id="patch_7">
    <path d="M 259.92 296.928 
C 259.92 296.928 259.92 296.928 259.92 296.928 
C 259.92 296.928 259.92 296.928 259.92 296.928 
L 390.303744 271.205904 
C 389.279868 266.015938 387.947022 260.891731 386.312323 255.860645 
C 384.677624 250.829558 382.743986 245.900561 380.521733 241.099971 
z
" clip-path="url(#pb552e41a5c)" style="fill: #4289be; stroke: #ffffff; stroke-width: 0.85; stroke-linejoin: miter"/>
   </g>
   <g id="patch_8">
    <path d="M 259.92 296.928 
C 259.92 296.928 259.92 296.928 259.92 296.928 
C 259.92 296.928 259.92 296.928 259.92 296.928 
L 387.766648 312.26332 
C 388.377075 307.174344 388.683106 302.053456 388.683106 296.928 
C 388.683106 291.802544 388.377075 286.681656 387.766648 281.59268 
z
" clip-path="url(#pb552e41a5c)" style="fill: #4289be; stroke: #ffffff; stroke-width: 0.85; stroke-linejoin: miter"/>
   </g>
   <g id="patch_9">
    <path d="M 259.92 296.928 
C 259.92 296.928 259.92 296.928 259.92 296.928 
C 259.92 296.928 259.92 296.928 259.92 296.928 
L 371.331244 348.501638 
C 373.384149 344.066878 375.170433 339.513497 376.68056 334.865806 
C 378.190686 330.218114 379.421962 325.4844 380.367813 320.689936 
z
" clip-path="url(#pb552e41a5c)" style="fill: #4289be; stroke: #ffffff; stroke-width: 0.85; stroke-linejoin: miter"/>
   </g>
   <g id="patch_10">
    <path d="M 259.92 296.928 
C 259.92 296.928 259.92 296.928 259.92 296.928 
C 259.92 296.928 259.92 296.928 259.92 296.928 
L 336.453225 367.897854 
C 339.278202 364.851425 341.918766 361.639037 344.360816 358.277844 
C 346.802866 354.91665 349.042049 351.412643 351.066409 347.784531 
z
" clip-path="url(#pb552e41a5c)" style="fill: #4289be; stroke: #ffffff; stroke-width: 0.85; stroke-linejoin: miter"/>
   </g>
   <g id="patch_11">
    <path d="M 259.92 296.928 
C 259.92 296.928 259.92 296.928 259.92 296.928 
C 259.92 296.928 259.92 296.928 259.92 296.928 
L 310.071589 386.810994 
C 313.64941 384.814694 317.104847 382.606549 320.41945 380.198349 
C 323.734053 377.790149 326.901912 375.186188 329.906113 372.400368 
z
" clip-path="url(#pb552e41a5c)" style="fill: #4289be; stroke: #ffffff; stroke-width: 0.85; stroke-linejoin: miter"/>
   </g>
   <g id="patch_12">
    <path d="M 259.92 296.928 
C 259.92 296.928 259.92 296.928 259.92 296.928 
C 259.92 296.928 259.92 296.928 259.92 296.928 
L 277.521434 386.148603 
C 281.072889 385.447972 284.579344 384.535916 288.022078 383.417303 
C 291.464812 382.298691 294.837688 380.975518 298.122695 379.454847 
z
" clip-path="url(#pb552e41a5c)" style="fill: #4289be; stroke: #ffffff; stroke-width: 0.85; stroke-linejoin: miter"/>
   </g>
   <g id="patch_13">
    <path d="M 259.92 296.928 
C 259.92 296.928 259.92 296.928 259.92 296.928 
C 259.92 296.928 259.92 296.928 259.92 296.928 
L 249.187737 386.400132 
C 252.749204 386.827334 256.333003 387.041506 259.92 387.041506 
C 263.506997 387.041506 267.090796 386.827334 270.652263 386.400132 
z
" clip-path="url(#pb552e41a5c)" style="fill: #4289be; stroke: #ffffff; stroke-width: 0.85; stroke-linejoin: miter"/>
   </g>
   <g id="patch_14">
    <path d="M 259.92 296.928 
C 259.92 296.928 259.92 296.928 259.92 296.928 
C 259.92 296.928 259.92 296.928 259.92 296.928 
L 222.672372 377.391676 
C 225.875255 378.87433 229.163808 380.164424 232.520474 381.255071 
C 235.87714 382.345718 239.295934 383.234973 242.758602 383.918087 
z
" clip-path="url(#pb552e41a5c)" style="fill: #4289be; stroke: #ffffff; stroke-width: 0.85; stroke-linejoin: miter"/>
   </g>
   <g id="patch_15">
    <path d="M 259.92 296.928 
C 259.92 296.928 259.92 296.928 259.92 296.928 
C 259.92 296.928 259.92 296.928 259.92 296.928 
L 200.755033 360.730946 
C 203.294729 363.086026 205.972779 365.287367 208.774883 367.323215 
C 211.576987 369.359062 214.498149 371.225787 217.522773 372.913422 
z
" clip-path="url(#pb552e41a5c)" style="fill: #4289be; stroke: #ffffff; stroke-width: 0.85; stroke-linejoin: miter"/>
   </g>
   <g id="patch_16">
    <path d="M 259.92 296.928 
C 259.92 296.928 259.92 296.928 259.92 296.928 
C 259.92 296.928 259.92 296.928 259.92 296.928 
L 188.98824 336.505459 
C 190.563633 339.32892 192.306205 342.055801 194.206652 344.671542 
C 196.107099 347.287282 198.162033 349.787219 200.36048 352.158005 
z
" clip-path="url(#pb552e41a5c)" style="fill: #4289be; stroke: #ffffff; stroke-width: 0.85; stroke-linejoin: miter"/>
   </g>
   <g id="patch_17">
    <path d="M 259.92 296.928 
C 259.92 296.928 259.92 296.928 259.92 296.928 
C 259.92 296.928 259.92 296.928 259.92 296.928 
L 189.15184 310.889138 
C 189.707568 313.706087 190.430994 316.487343 191.318257 319.218057 
C 192.20552 321.948772 193.255037 324.624075 194.461205 327.229683 
z
" clip-path="url(#pb552e41a5c)" style="fill: #4289be; stroke: #ffffff; stroke-width: 0.85; stroke-linejoin: miter"/>
   </g>
   <g id="patch_18">
    <path d="M 259.92 296.928 
C 259.92 296.928 259.92 296.928 259.92 296.928 
C 259.92 296.928 259.92 296.928 259.92 296.928 
L 188.506463 288.361882 
C 188.165486 291.204521 187.994541 294.064984 187.994541 296.928 
C 187.994541 299.791016 188.165486 302.651479 188.506463 305.494118 
z
" clip-path="url(#pb552e41a5c)" style="fill: #4289be; stroke: #ffffff; stroke-width: 0.85; stroke-linejoin: miter"/>
   </g>
   <g id="patch_19">
    <path d="M 259.92 296.928 
C 259.92 296.928 259.92 296.928 259.92 296.928 
C 259.92 296.928 259.92 296.928 259.92 296.928 
L 210.966575 274.266856 
C 210.064541 276.215463 209.279658 278.216191 208.616118 280.258358 
C 207.952577 282.300526 207.411562 284.380491 206.995961 286.487149 
z
" clip-path="url(#pb552e41a5c)" style="fill: #4289be; stroke: #ffffff; stroke-width: 0.85; stroke-linejoin: miter"/>
   </g>
   <g id="patch_20">
    <path d="M 259.92 296.928 
C 259.92 296.928 259.92 296.928 259.92 296.928 
C 259.92 296.928 259.92 296.928 259.92 296.928 
L 223.850876 263.480821 
C 222.519501 264.916564 221.275037 266.430521 220.12413 268.014608 
C 218.973224 269.598696 217.917926 271.250089 216.963871 272.959971 
z
" clip-path="url(#pb552e41a5c)" style="fill: #4289be; stroke: #ffffff; stroke-width: 0.85; stroke-linejoin: miter"/>
   </g>
   <g id="patch_21">
    <path d="M 259.92 296.928 
C 259.92 296.928 259.92 296.928 259.92 296.928 
C 259.92 296.928 259.92 296.928 259.92 296.928 
L 237.663973 257.040166 
C 236.076226 257.926074 234.542789 258.905993 233.071851 259.974693 
C 231.600912 261.043392 230.195095 262.198965 228.861906 263.435242 
z
" clip-path="url(#pb552e41a5c)" style="fill: #4289be; stroke: #ffffff; stroke-width: 0.85; stroke-linejoin: miter"/>
   </g>
   <g id="patch_22">
    <path d="M 259.92 296.928 
C 259.92 296.928 259.92 296.928 259.92 296.928 
C 259.92 296.928 259.92 296.928 259.92 296.928 
L 251.799338 255.764858 
C 250.160826 256.088104 248.543075 256.508894 246.954723 257.02498 
C 245.366371 257.541067 243.810249 258.151532 242.294666 258.853114 
z
" clip-path="url(#pb552e41a5c)" style="fill: #4289be; stroke: #ffffff; stroke-width: 0.85; stroke-linejoin: miter"/>
   </g>
   <g id="text_1">
    <text style="font-size: 7px; font-family: 'Times New Roman', 'Times', 'DejaVu Serif', serif; text-anchor: end; fill: #6f7f8d" x="218.583529" y="298.609641" transform="rotate(-0 218.583529 298.609641)">20</text>
   </g>
   <g id="text_2">
    <text style="font-size: 7px; font-family: 'Times New Roman', 'Times', 'DejaVu Serif', serif; text-anchor: end; fill: #6f7f8d" x="177.247059" y="298.609641" transform="rotate(-0 177.247059 298.609641)">40</text>
   </g>
   <g id="text_3">
    <text style="font-size: 7px; font-family: 'Times New Roman', 'Times', 'DejaVu Serif', serif; text-anchor: end; fill: #6f7f8d" x="135.910588" y="298.609641" transform="rotate(-0 135.910588 298.609641)">60</text>
   </g>
   <g id="text_4">
    <text style="font-size: 7px; font-family: 'Times New Roman', 'Times', 'DejaVu Serif', serif; text-anchor: end; fill: #6f7f8d" x="94.574118" y="298.609641" transform="rotate(-0 94.574118 298.609641)">80</text>
   </g>
   <g id="text_5">
    <text style="font-weight: 700; font-size: 7.8px; font-family: 'Times New Roman', 'Times', 'DejaVu Serif', serif; fill: #4289be" transform="translate(258.096579 115.310796) rotate(-90)">Kimi-K3</text>
    <text style="font-weight: 700; font-size: 7.8px; font-family: 'Times New Roman', 'Times', 'DejaVu Serif', serif; fill: #4289be" transform="translate(265.240014 107.404765) rotate(-90)">76.1</text>
   </g>
   <g id="text_6">
    <text style="font-weight: 700; font-size: 7.8px; font-family: 'Times New Roman', 'Times', 'DejaVu Serif', serif; fill: #4289be" transform="translate(314.074184 124.357846) rotate(-72)">GLM-5.2</text>
    <text style="font-weight: 700; font-size: 7.8px; font-family: 'Times New Roman', 'Times', 'DejaVu Serif', serif; fill: #4289be" transform="translate(323.545535 118.324667) rotate(-72)">71.3</text>
   </g>
   <g id="text_7">
    <text style="font-weight: 700; font-size: 7.8px; font-family: 'Times New Roman', 'Times', 'DejaVu Serif', serif; fill: #4289be" transform="translate(352.947998 165.783757) rotate(-54)">Doubao-Seed-2.1-Pro</text>
    <text style="font-weight: 700; font-size: 7.8px; font-family: 'Times New Roman', 'Times', 'DejaVu Serif', serif; fill: #4289be" transform="translate(375.622945 146.727508) rotate(-54)">69.2</text>
   </g>
   <g id="text_8">
    <text style="font-size: 7.15px; font-family: 'Times New Roman', 'Times', 'DejaVu Serif', serif" transform="translate(396.579285 195.564635) rotate(-36)">DeepSeek-V4-Pro</text>
    <text style="font-size: 7.15px; font-family: 'Times New Roman', 'Times', 'DejaVu Serif', serif" transform="translate(416.713419 189.331825) rotate(-36)">66.8</text>
   </g>
   <g id="text_9">
    <text style="font-size: 7.15px; font-family: 'Times New Roman', 'Times', 'DejaVu Serif', serif" transform="translate(428.977455 240.233157) rotate(-18)">GPT-5.6-Sol</text>
    <text style="font-size: 7.15px; font-family: 'Times New Roman', 'Times', 'DejaVu Serif', serif" transform="translate(442.288449 243.049787) rotate(-18)">64.3</text>
   </g>
   <g id="text_10">
    <text style="font-size: 7.15px; font-family: 'Times New Roman', 'Times', 'DejaVu Serif', serif" transform="translate(433.923927 295.249627)">MiniMax-M2.5</text>
    <text style="font-size: 7.15px; font-family: 'Times New Roman', 'Times', 'DejaVu Serif', serif" transform="translate(450.011985 302.041725)">62.3</text>
   </g>
   <g id="text_11">
    <text style="font-size: 7.15px; font-family: 'Times New Roman', 'Times', 'DejaVu Serif', serif" transform="translate(425.195208 348.864425) rotate(-342)">GPT-OSS-120B</text>
    <text style="font-size: 7.15px; font-family: 'Times New Roman', 'Times', 'DejaVu Serif', serif" transform="translate(439.127993 360.533095) rotate(-342)">59.4</text>
   </g>
   <g id="text_12">
    <text style="font-size: 7.15px; font-family: 'Times New Roman', 'Times', 'DejaVu Serif', serif" transform="translate(402.002226 398.082196) rotate(-324)">Qwen3.5-397B</text>
    <text style="font-size: 7.15px; font-family: 'Times New Roman', 'Times', 'DejaVu Serif', serif" transform="translate(410.701875 412.798356) rotate(-324)">50.5</text>
   </g>
   <g id="text_13">
    <text style="font-size: 7.15px; font-family: 'Times New Roman', 'Times', 'DejaVu Serif', serif" transform="translate(364.840527 438.483298) rotate(-306)">Qwen3.8-27B</text>
    <text style="font-size: 7.15px; font-family: 'Times New Roman', 'Times', 'DejaVu Serif', serif" transform="translate(367.516175 453.721419) rotate(-306)">49.8</text>
   </g>
   <g id="text_14">
    <text style="font-size: 7.15px; font-family: 'Times New Roman', 'Times', 'DejaVu Serif', serif" transform="translate(317.343278 468.227348) rotate(-288)">Qwen3-8B</text>
    <text style="font-size: 7.15px; font-family: 'Times New Roman', 'Times', 'DejaVu Serif', serif" transform="translate(313.798213 479.296449) rotate(-288)">44.0</text>
   </g>
   <g id="text_15">
    <text style="font-size: 7.15px; font-family: 'Times New Roman', 'Times', 'DejaVu Serif', serif" transform="translate(261.598373 474.33879) rotate(-270)">GPT-4o-mini</text>
    <text style="font-size: 7.15px; font-family: 'Times New Roman', 'Times', 'DejaVu Serif', serif" transform="translate(254.806275 487.019985) rotate(-270)">43.6</text>
   </g>
   <g id="text_16">
    <text style="font-size: 7.15px; font-family: 'Times New Roman', 'Times', 'DejaVu Serif', serif" transform="translate(191.42002 502.317932) rotate(-72)">Qwen3.5-27B</text>
    <text style="font-size: 7.15px; font-family: 'Times New Roman', 'Times', 'DejaVu Serif', serif" transform="translate(202.175212 491.196544) rotate(-72)">42.9</text>
   </g>
   <g id="text_17">
    <text style="font-size: 7.15px; font-family: 'Times New Roman', 'Times', 'DejaVu Serif', serif" transform="translate(133.930334 467.48248) rotate(-54)">Qwen3-4B</text>
    <text style="font-size: 7.15px; font-family: 'Times New Roman', 'Times', 'DejaVu Serif', serif" transform="translate(144.969162 463.844244) rotate(-54)">42.1</text>
   </g>
   <g id="text_18">
    <text style="font-size: 7.15px; font-family: 'Times New Roman', 'Times', 'DejaVu Serif', serif" transform="translate(81.850227 424.22868) rotate(-36)">Gemini-3.1-Pro</text>
    <text style="font-size: 7.15px; font-family: 'Times New Roman', 'Times', 'DejaVu Serif', serif" transform="translate(99.0153 420.153019) rotate(-36)">39.3</text>
   </g>
   <g id="text_19">
    <text style="font-size: 7.15px; font-family: 'Times New Roman', 'Times', 'DejaVu Serif', serif" transform="translate(55.19279 361.683157) rotate(-18)">Qwen3.5-9B</text>
    <text style="font-size: 7.15px; font-family: 'Times New Roman', 'Times', 'DejaVu Serif', serif" transform="translate(68.811912 364.39967) rotate(-18)">34.9</text>
   </g>
   <g id="text_20">
    <text style="font-size: 7.15px; font-family: 'Times New Roman', 'Times', 'DejaVu Serif', serif" transform="translate(41.631319 295.249627)">Llama-3.1-70B</text>
    <text style="font-size: 7.15px; font-family: 'Times New Roman', 'Times', 'DejaVu Serif', serif" transform="translate(57.315515 302.041725)">34.8</text>
   </g>
   <g id="text_21">
    <text style="font-size: 7.15px; font-family: 'Times New Roman', 'Times', 'DejaVu Serif', serif" transform="translate(46.974571 225.97309) rotate(-342)">Qwen3.5-35B-A3B</text>
    <text style="font-size: 7.15px; font-family: 'Times New Roman', 'Times', 'DejaVu Serif', serif" transform="translate(65.651456 239.183212) rotate(-342)">26.1</text>
   </g>
   <g id="text_22">
    <text style="font-size: 7.15px; font-family: 'Times New Roman', 'Times', 'DejaVu Serif', serif" transform="translate(87.196343 169.362334) rotate(-324)">Qwen3.5-4B</text>
    <text style="font-size: 7.15px; font-family: 'Times New Roman', 'Times', 'DejaVu Serif', serif" transform="translate(93.003756 181.977162) rotate(-324)">23.8</text>
   </g>
   <g id="text_23">
    <text style="font-size: 7.15px; font-family: 'Times New Roman', 'Times', 'DejaVu Serif', serif" transform="translate(134.021631 120.788343) rotate(-306)">Llama-3.1-8B</text>
    <text style="font-size: 7.15px; font-family: 'Times New Roman', 'Times', 'DejaVu Serif', serif" transform="translate(136.694981 136.0233) rotate(-306)">22.1</text>
   </g>
   <g id="text_24">
    <text style="font-size: 7.15px; font-family: 'Times New Roman', 'Times', 'DejaVu Serif', serif" transform="translate(192.986097 85.495299) rotate(-288)">Qwen3-30B-A3B</text>
    <text style="font-size: 7.15px; font-family: 'Times New Roman', 'Times', 'DejaVu Serif', serif" transform="translate(192.44833 105.819912) rotate(-288)">20.3</text>
   </g>
  </g>
  <g id="axes_2">
   <g id="patch_23">
    <path d="M 16.29792 72.02304 
L 503.54208 72.02304 
Q 517.6944 72.02304 517.6944 71.152128 
L 517.6944 41.167872 
Q 517.6944 40.29696 503.54208 40.29696 
L 16.29792 40.29696 
Q 2.1456 40.29696 2.1456 41.167872 
L 2.1456 71.152128 
Q 2.1456 72.02304 16.29792 72.02304 
z
" clip-path="url(#pf1d949926e)" style="fill: #f8fafc; stroke: #dce5eb; stroke-width: 0.9; stroke-linejoin: miter"/>
   </g>
   <g id="patch_24">
    <path d="M 162.87552 60.887808 
L 181.07136 60.887808 
Q 186.12576 60.887808 186.12576 60.576768 
L 186.12576 51.743232 
Q 186.12576 51.432192 181.07136 51.432192 
L 162.87552 51.432192 
Q 157.82112 51.432192 157.82112 51.743232 
L 157.82112 60.576768 
Q 157.82112 60.887808 162.87552 60.887808 
z
" clip-path="url(#pf1d949926e)" style="fill: #4289be"/>
   </g>
   <g id="text_25">
    <text style="font-weight: 700; font-size: 12.8px; font-family: 'Times New Roman', 'Times', 'DejaVu Serif', serif; text-anchor: start; fill: #243746" x="201.7944" y="59.029" transform="rotate(-0 201.7944 59.029)">Mean 47.2</text>
   </g>
   <g id="text_26">
    <text style="font-weight: 700; font-size: 12.8px; font-family: 'Times New Roman', 'Times', 'DejaVu Serif', serif; text-anchor: start; fill: #243746" x="302.8824" y="59.029" transform="rotate(-0 302.8824 59.029)">Best 76.1</text>
   </g>
  </g>
  <g id="text_27">
   <text style="font-weight: 700; font-size: 18px; font-family: 'Times New Roman', 'Times', 'DejaVu Serif', serif; text-anchor: middle; fill: #243746" x="259.92" y="19.400625" transform="rotate(-0 259.92 19.400625)">Work / Study: Collaboration Style</text>
  </g>
 </g>
 <defs>
  <clipPath id="pb552e41a5c">
   <path d="M 470.736 296.928 
C 470.736 269.243897 465.282835 241.828986 454.688588 216.25221 
C 444.09434 190.675433 428.56504 167.434194 408.989423 147.858577 
C 389.413806 128.28296 366.172567 112.75366 340.59579 102.159412 
C 315.019014 91.565165 287.604103 86.112 259.92 86.112 
C 232.235897 86.112 204.820986 91.565165 179.24421 102.159412 
C 153.667433 112.75366 130.426194 128.28296 110.850577 147.858577 
C 91.27496 167.434194 75.74566 190.675433 65.151412 216.25221 
C 54.557165 241.828986 49.104 269.243897 49.104 296.928 
C 49.104 324.612103 54.557165 352.027014 65.151412 377.60379 
C 75.74566 403.180567 91.27496 426.421806 110.850577 445.997423 
C 130.426194 465.57304 153.667433 481.10234 179.24421 491.696588 
C 204.820986 502.290835 232.235897 507.744 259.92 507.744 
C 287.604103 507.744 315.019014 502.290835 340.59579 491.696588 
C 366.172567 481.10234 389.413806 465.57304 408.989423 445.997423 
C 428.56504 426.421806 444.09434 403.180567 454.688588 377.60379 
C 465.282835 352.027014 470.736 324.612103 470.736 296.928 
M 259.92 296.928 
C 259.92 296.928 259.92 296.928 259.92 296.928 
C 259.92 296.928 259.92 296.928 259.92 296.928 
C 259.92 296.928 259.92 296.928 259.92 296.928 
C 259.92 296.928 259.92 296.928 259.92 296.928 
C 259.92 296.928 259.92 296.928 259.92 296.928 
C 259.92 296.928 259.92 296.928 259.92 296.928 
C 259.92 296.928 259.92 296.928 259.92 296.928 
C 259.92 296.928 259.92 296.928 259.92 296.928 
C 259.92 296.928 259.92 296.928 259.92 296.928 
C 259.92 296.928 259.92 296.928 259.92 296.928 
C 259.92 296.928 259.92 296.928 259.92 296.928 
C 259.92 296.928 259.92 296.928 259.92 296.928 
C 259.92 296.928 259.92 296.928 259.92 296.928 
C 259.92 296.928 259.92 296.928 259.92 296.928 
C 259.92 296.928 259.92 296.928 259.92 296.928 
C 259.92 296.928 259.92 296.928 259.92 296.928 
z
"/>
  </clipPath>
  <clipPath id="pf1d949926e">
   <rect x="7.2" y="40.608" width="505.44" height="31.104"/>
  </clipPath>
 </defs>
</svg>
